<?xml version="1.0" encoding="UTF-8" standalone="no"?> <svg id="Layer_1" enable-background="new 0 0 512.356 512.356" height="512" viewBox="0 0 512.356 512.356" width="512" xmlns="http://www.w3.org/2000/svg"><g><g><path d="m493.516 365.687-35.193-13.004-8.427-17.053-39.979-14.769-62.026 26.524-20.188-20.188h-166.065l-37.82 23.61h-13.062v15h7.708v39.507h15v-42.846l32.471-20.27h155.555l26.297 26.296-.472 29.187h-58.335v-29.19h-15v29.19h-57.464v15h130.949l106.527-45.607 28.723 10.613 9.076 18.362-64.258 27.5-7.502-15.183-13.447 6.646 7.139 14.447-64.127 27.444 5.902 13.79 156.763-67.087zm-130.726 24.034v-27.444l-3.467-3.467 51-21.81 28.772 10.629 3.861 7.814z"/><path d="m257.053 496.497-130.067-36.01h-16.23v15h14.192l133.172 36.869 82.517-35.314-5.902-13.791z"/><path d="m.096 500.792h88.164v-188.775h-88.164zm15-173.775h58.164v158.775h-58.164z"/><path d="m218.76 227.118 29.336 29.336v28.112h-54.846l-4.634 18.288 14.541 3.685 1.767-6.972h100.586l1.767 6.972 14.541-3.685-4.634-18.288h-54.087v-28.112l29.336-29.336c29.283 6.249 59.533-2.955 80.237-23.659 22.006-22.007 30.683-54.392 22.643-84.516l-1.119-4.193-4.194-1.119c-30.126-8.038-62.509.638-84.516 22.644-20.968 20.968-29.822 51.356-23.658 80.236l-18.729 18.729v-83.822c29.214-18.941 45.21-54.153 38.49-89.764l-14.74 2.783c4.921 26.052-4.839 51.789-23.75 68.254v-36.256h-15v36.258c-15.676-13.649-25.01-33.617-25.01-54.745 0-24.305 12.351-47.08 32.509-60.458 12.321 8.179 21.969 20.012 27.409 33.724l13.943-5.532c-7.221-18.197-20.571-33.647-37.593-43.504l-3.758-2.178-3.758 2.175c-26.988 15.622-43.753 44.656-43.753 75.771 0 29.653 15.228 57.405 40.01 73.472v83.822l-18.73-18.729c6.164-28.88-2.691-59.268-23.658-80.236-22.008-22.006-54.395-30.681-84.516-22.644l-4.192 1.119-1.119 4.193c-8.04 30.124.637 62.509 22.643 84.516 20.673 20.673 50.905 29.918 80.236 23.659zm97.331-80.237c17.19-17.189 42.026-24.56 65.737-19.766 4.795 23.709-2.576 48.547-19.767 65.738-14.939 14.938-35.656 22.458-56.388 21.024l25.636-25.636-10.607-10.606-25.636 25.636c-1.434-20.733 6.085-41.45 21.025-56.39zm-186.727-19.766c23.71-4.796 48.548 2.576 65.737 19.766 14.94 14.939 22.459 35.657 21.024 56.389l-25.636-25.636-10.607 10.606 25.636 25.636c-20.734 1.435-41.448-6.085-56.388-21.024-17.19-17.189-24.561-42.028-19.766-65.737z"/></g><g><path d="m51.678 458.164h-15v-15h15zm0-45h-15v-15h15zm0-45h-15v-15h15z"/></g><g><path d="m248.164 56.153h15v15h-15z"/></g><g><path d="m341.733 152.305h15v15h-15z" transform="matrix(.707 -.707 .707 .707 -10.715 293.743)"/></g><g><path d="m154.459 152.305h15v15h-15z" transform="matrix(.707 -.707 .707 .707 -65.563 161.339)"/></g></g></svg>